<?xml version="1.0" encoding="UTF-8"?>
<svg version="1.1" xmlns="http://www.w3.org/2000/svg" width="344" height="180">
<path d="M0 0 C113.52 0 227.04 0 344 0 C344 59.4 344 118.8 344 180 C230.48 180 116.96 180 0 180 C0 120.6 0 61.2 0 0 Z " fill="#0E0E0E" transform="translate(0,0)"/>
<path d="M0 0 C0.99 0.99 1.98 1.98 3 3 C3.33 2.01 3.66 1.02 4 0 C4.66 0.33 5.32 0.66 6 1 C6.33 0.67 6.66 0.34 7 0 C7.99 0.33 8.98 0.66 10 1 C9.67 1.99 9.34 2.98 9 4 C10.7015625 4.4640625 10.7015625 4.4640625 12.4375 4.9375 C16 6 16 6 17 7 C17.07244053 9.01964199 17.08377188 11.04167124 17.0625 13.0625 C17.05347656 14.16722656 17.04445312 15.27195312 17.03515625 16.41015625 C17.02355469 17.26480469 17.01195312 18.11945313 17 19 C15.68 19 14.36 19 13 19 C12.505 13.555 12.505 13.555 12 8 C11.01 8 10.02 8 9 8 C8.67 11.63 8.34 15.26 8 19 C6.02 19 4.04 19 2 19 C2.99 19.66 3.98 20.32 5 21 C5 21.66 5 22.32 5 23 C4.01 23.33 3.02 23.66 2 24 C2 23.34 2 22.68 2 22 C1.34 22.268125 0.68 22.53625 0 22.8125 C-3.48241304 23.03015081 -4.00864174 22.51434708 -6.75 20.5625 C-11.14029811 17.58307274 -14.79442162 17.04993246 -20 18 C-22.97984167 19.33170309 -22.97984167 19.33170309 -25 21 C-23.125 16.25 -23.125 16.25 -22 14 C-21.57715078 9.24294625 -22.46620997 6.96593222 -25 3 C-24.67 2.34 -24.34 1.68 -24 1 C-22.9790625 1.7425 -22.9790625 1.7425 -21.9375 2.5 C-18.29752475 4.35871077 -16.04537127 4.43343264 -12 4 C-9.23558031 2.59240659 -9.23558031 2.59240659 -7 1 C-6.34 1 -5.68 1 -5 1 C-5 1.99 -5 2.98 -5 4 C-3.35 2.68 -1.7 1.36 0 0 Z " fill="#111111" transform="translate(151,80)"/>
<path d="M0 0 C0.515625 0.49242188 1.03125 0.98484375 1.5625 1.4921875 C4.8532359 3.52780298 7.16301339 3.26319655 11 3.125 C15.06296676 2.99588029 18.03002297 3.00750574 22 4 C22 8.95 22 13.9 22 19 C20.411875 19.061875 18.82375 19.12375 17.1875 19.1875 C15.84751953 19.23970703 15.84751953 19.23970703 14.48046875 19.29296875 C12 19 12 19 10.1875 17.75 C8.08449723 14.65083803 8.82052398 11.64934583 9 8 C7.02 8 5.04 8 3 8 C3 11.63 3 15.26 3 19 C1.68 19 0.36 19 -1 19 C-1.12375 18.195625 -1.2475 17.39125 -1.375 16.5625 C-1.58125 15.716875 -1.7875 14.87125 -2 14 C-2.66 13.67 -3.32 13.34 -4 13 C-3.67 11.35 -3.34 9.7 -3 8 C-3.66 8 -4.32 8 -5 8 C-5 10.64 -5 13.28 -5 16 C-4.01 16 -3.02 16 -2 16 C-2 16.99 -2 17.98 -2 19 C-4.375 19.125 -4.375 19.125 -7 19 C-9 17 -9 17 -9.1953125 14.6171875 C-9.17210937 13.71226563 -9.14890625 12.80734375 -9.125 11.875 C-9.10695312 10.96492188 -9.08890625 10.05484375 -9.0703125 9.1171875 C-9.04710937 8.41851562 -9.02390625 7.71984375 -9 7 C-9.66 7 -10.32 7 -11 7 C-11 6.34 -11 5.68 -11 5 C-10.34 5 -9.68 5 -9 5 C-9 3.68 -9 2.36 -9 1 C-7.68 1 -6.36 1 -5 1 C-5 1.99 -5 2.98 -5 4 C-4.34 4 -3.68 4 -3 4 C-2.67 3.01 -2.34 2.02 -2 1 C-1.34 0.67 -0.68 0.34 0 0 Z " fill="#292929" transform="translate(207,80)"/>
<path d="M0 0 C0.66 0.66 1.32 1.32 2 2 C5.12196336 2.46486718 5.12196336 2.46486718 8.625 2.625 C9.81351563 2.69976562 11.00203125 2.77453125 12.2265625 2.8515625 C13.14179688 2.90054688 14.05703125 2.94953125 15 3 C14.690625 3.763125 14.38125 4.52625 14.0625 5.3125 C13.32106407 7.18789677 12.63771783 9.08684652 12 11 C12.95093297 12.69514137 13.95107762 14.36368108 15 16 C15 16.66 15 17.32 15 18 C13.68 17.67 12.36 17.34 11 17 C10.67 15.68 10.34 14.36 10 13 C9.34 13 8.68 13 8 13 C7.34 14.65 6.68 16.3 6 18 C5.01 18 4.02 18 3 18 C3 17.01 3 16.02 3 15 C2.484375 15.515625 1.96875 16.03125 1.4375 16.5625 C-2.04426568 18.61584899 -4.1631596 17.97665028 -8 17 C-10 15.875 -10 15.875 -11 14 C-10.75743709 9.63386765 -9.80477442 5.97050372 -8 2 C-5.69 2 -3.38 2 -1 2 C-0.67 1.34 -0.34 0.68 0 0 Z " fill="#1B1B1B" transform="translate(180,81)"/>
<path d="M0 0 C0.845625 0.495 1.69125 0.99 2.5625 1.5 C6.44294451 3.19328488 8.80900264 3.45719971 13 3 C15.76441969 1.59240659 15.76441969 1.59240659 18 0 C18.66 0 19.32 0 20 0 C20 0.66 20 1.32 20 2 C19.34 2 18.68 2 18 2 C17.03152698 4.90541905 16.80417188 6.96637454 16.75 10 C16.72421875 10.86625 16.6984375 11.7325 16.671875 12.625 C17.06420885 15.46474981 17.9063089 16.14873629 20 18 C20 18.66 20 19.32 20 20 C15.125 18.125 15.125 18.125 14 17 C8.57498256 16.41714689 4.45613675 16.55008768 0 20 C1.875 15.25 1.875 15.25 3 13 C3.42019867 8.272765 2.60668784 5.91003176 0 2 C0 1.34 0 0.68 0 0 Z " fill="#F2F2F2" transform="translate(126,81)"/>
<path d="M0 0 C2.79947917 0.06510417 5.59895833 0.13020833 8.3984375 0.1953125 C8.3984375 4.8153125 8.3984375 9.4353125 8.3984375 14.1953125 C6.8103125 14.2571875 5.2221875 14.3190625 3.5859375 14.3828125 C2.69261719 14.41761719 1.79929688 14.45242187 0.87890625 14.48828125 C-1.6015625 14.1953125 -1.6015625 14.1953125 -3.40625 12.96875 C-4.92512544 10.71525507 -4.97188428 9.33264495 -4.9140625 6.6328125 C-4.91019531 5.84777344 -4.90632812 5.06273438 -4.90234375 4.25390625 C-4.41877779 0.94430548 -3.24914653 0.24392992 0 0 Z " fill="#DEDEDE" transform="translate(220.6015625,84.8046875)"/>
<path d="M0 0 C1.9375 1.75 1.9375 1.75 3 4 C3 5.32 3 6.64 3 8 C-0.3 8 -3.6 8 -7 8 C-6.67 8.66 -6.34 9.32 -6 10 C-3.36 10 -0.72 10 2 10 C1.67 10.99 1.34 11.98 1 13 C-3.05974981 13.95523525 -5.2071345 14.39643275 -9 12.5 C-11 10 -11 10 -11 6.4375 C-9.12235014 -0.01692141 -6.71215163 -0.83901895 0 0 Z " fill="#848484" transform="translate(180,85)"/>
<path d="M0 0 C1.32 0.33 2.64 0.66 4 1 C4.33 0.67 4.66 0.34 5 0 C7.9375 -0.1875 7.9375 -0.1875 11 0 C13 2 13 2 13.1953125 4.8203125 C13.16050781 6.45613281 13.16050781 6.45613281 13.125 8.125 C13.10695312 9.22070312 13.08890625 10.31640625 13.0703125 11.4453125 C13.04710937 12.28835937 13.02390625 13.13140625 13 14 C11.68 14 10.36 14 9 14 C8.67 10.37 8.34 6.74 8 3 C7.01 3 6.02 3 5 3 C4.67 6.63 4.34 10.26 4 14 C2.68 14 1.36 14 0 14 C0 9.38 0 4.76 0 0 Z " fill="#D7D7D7" transform="translate(155,85)"/>
<path d="M0 0 C1.98 0 3.96 0 6 0 C6.1953125 1.98567708 6.390625 3.97135417 6.5859375 5.95703125 C6.92665391 8.29988142 6.92665391 8.29988142 9 11 C8.67 11.66 8.34 12.32 8 13 C8.66 13.33 9.32 13.66 10 14 C8.35 14.33 6.7 14.66 5 15 C5 14.34 5 13.68 5 13 C4.01 13 3.02 13 2 13 C2 13.99 2 14.98 2 16 C0.35 15.67 -1.3 15.34 -3 15 C-3 14.34 -3 13.68 -3 13 C-3.99 12.67 -4.98 12.34 -6 12 C-4.02 11.67 -2.04 11.34 0 11 C0 7.37 0 3.74 0 0 Z " fill="#131313" transform="translate(210,88)"/>
<path d="M0 0 C1.32 0 2.64 0 4 0 C4.33 1.32 4.66 2.64 5 4 C5.66 4 6.32 4 7 4 C7.33 2.68 7.66 1.36 8 0 C9.32 0.33 10.64 0.66 12 1 C11.443125 1.886875 10.88625 2.77375 10.3125 3.6875 C9.879375 4.780625 9.44625 5.87375 9 7 C10.20968895 9.7667506 10.20968895 9.7667506 12 12 C12 12.66 12 13.32 12 14 C10.68 13.67 9.36 13.34 8 13 C7.67 11.68 7.34 10.36 7 9 C6.34 9 5.68 9 5 9 C4.34 10.65 3.68 12.3 3 14 C2.01 14 1.02 14 0 14 C0.309375 13.236875 0.61875 12.47375 0.9375 11.6875 C1.67893593 9.81210323 2.36228217 7.91315348 3 6 C1.62507196 2.8331162 1.62507196 2.8331162 0 0 Z " fill="#E9E9E9" transform="translate(183,85)"/>
<path d="M0 0 C1.32 0 2.64 0 4 0 C4 1.32 4 2.64 4 4 C4.66 4 5.32 4 6 4 C6 4.66 6 5.32 6 6 C5.34 6 4.68 6 4 6 C4 8.97 4 11.94 4 15 C4.99 15 5.98 15 7 15 C7 15.99 7 16.98 7 18 C4.625 18.125 4.625 18.125 2 18 C0 16 0 16 -0.1953125 13.6171875 C-0.17210937 12.71226563 -0.14890625 11.80734375 -0.125 10.875 C-0.10695312 9.96492188 -0.08890625 9.05484375 -0.0703125 8.1171875 C-0.04710937 7.41851562 -0.02390625 6.71984375 0 6 C-0.66 6 -1.32 6 -2 6 C-2 5.34 -2 4.68 -2 4 C-1.34 4 -0.68 4 0 4 C0 2.68 0 1.36 0 0 Z " fill="#DDDDDD" transform="translate(198,81)"/>
<path d="M0 0 C2.64 0 5.28 0 8 0 C8 0.66 8 1.32 8 2 C6.35 2.33 4.7 2.66 3 3 C3 6.63 3 10.26 3 14 C2.01 14 1.02 14 0 14 C0 9.38 0 4.76 0 0 Z " fill="#F3F3F3" transform="translate(207,85)"/>
<path d="M0 0 C2 2 2 2 2.125 4.625 C2.08375 5.40875 2.0425 6.1925 2 7 C-0.97 7 -3.94 7 -7 7 C-7 6.67 -7 6.34 -7 6 C-5.02 6 -3.04 6 -1 6 C-1.33 5.01 -1.66 4.02 -2 3 C-5.93075644 3.57452746 -5.93075644 3.57452746 -9 6 C-9.33 5.01 -9.66 4.02 -10 3 C-7.30045271 -0.81112559 -4.38454651 -0.39859514 0 0 Z " fill="#F2F2F2" transform="translate(180,85)"/>
<path d="M0 0 C2.125 0.375 2.125 0.375 4 1 C4 3.31 4 5.62 4 8 C2.35 8.33 0.7 8.66 -1 9 C-1.625 5.625 -1.625 5.625 -2 2 C-1.34 1.34 -0.68 0.68 0 0 Z " fill="#1D1D1D" transform="translate(221,87)"/>
<path d="M0 0 C0.66 0.66 1.32 1.32 2 2 C5.12196336 2.46486718 5.12196336 2.46486718 8.625 2.625 C9.81351563 2.69976562 11.00203125 2.77453125 12.2265625 2.8515625 C13.14179688 2.90054688 14.05703125 2.94953125 15 3 C13.68 3.33 12.36 3.66 11 4 C10.67 5.32 10.34 6.64 10 8 C9.34 8 8.68 8 8 8 C7.67 6.68 7.34 5.36 7 4 C5.02 4.66 3.04 5.32 1 6 C0.67 5.67 0.34 5.34 0 5 C-2.67058851 4.85884839 -5.32432238 4.95752893 -8 5 C-7.67 4.01 -7.34 3.02 -7 2 C-5.02 2 -3.04 2 -1 2 C-0.67 1.34 -0.34 0.68 0 0 Z " fill="#2B2B2B" transform="translate(180,81)"/>
<path d="M0 0 C0.33 0 0.66 0 1 0 C1 3.96 1 7.92 1 12 C-2.3 12 -5.6 12 -9 12 C-7 9 -7 9 -4.375 8.3125 C-3.59125 8.209375 -2.8075 8.10625 -2 8 C-1.34 5.36 -0.68 2.72 0 0 Z " fill="#F0F0F0" transform="translate(228,87)"/>
<path d="M0 0 C2.5625 2 2.5625 2 4 4 C3.34 4 2.68 4 2 4 C2 4.66 2 5.32 2 6 C-1 5 -1 5 -2 4 C-4.36186139 2.73854232 -4.36186139 2.73854232 -7 2 C-7.99 2.66 -8.98 3.32 -10 4 C-10.66 3.34 -11.32 2.68 -12 2 C-8.00706063 -0.66195958 -4.69736163 -0.72919332 0 0 Z " fill="#1B1B1B" transform="translate(140,97)"/>
<path d="M0 0 C1.216875 -0.01417969 2.43375 -0.02835937 3.6875 -0.04296875 C6.7719563 0.17163375 8.42673876 0.55991226 11 2.1875 C8.158949 2.85598259 5.74624398 3.18252439 2.8125 3.125 C-0.13975003 2.86643494 -0.13975003 2.86643494 -2 5.1875 C-4.125 4.8125 -4.125 4.8125 -6 4.1875 C-5.01 4.1875 -4.02 4.1875 -3 4.1875 C-3 3.5275 -3 2.8675 -3 2.1875 C-3.763125 2.39375 -4.52625 2.6 -5.3125 2.8125 C-8 3.1875 -8 3.1875 -11 1.1875 C-7.32872046 0.04022514 -3.82958514 0.02028382 0 0 Z " fill="#3A3A3A" transform="translate(218,82.8125)"/>
<path d="M0 0 C0.33 0 0.66 0 1 0 C1 4.29 1 8.58 1 13 C2.65 13 4.3 13 6 13 C6 13.33 6 13.66 6 14 C3.03 14 0.06 14 -3 14 C-2.01 13.67 -1.02 13.34 0 13 C0 12.01 0 11.02 0 10 C-0.99 10 -1.98 10 -3 10 C-3 7.36 -3 4.72 -3 2 C-2.34 2 -1.68 2 -1 2 C-1 3.65 -1 5.3 -1 7 C-0.67 4.69 -0.34 2.38 0 0 Z " fill="#040404" transform="translate(205,86)"/>
<path d="M0 0 C0.66 0.33 1.32 0.66 2 1 C2.33 0.67 2.66 0.34 3 0 C3.99 0.33 4.98 0.66 6 1 C5.34 2.98 4.68 4.96 4 7 C3.67 6.34 3.34 5.68 3 5 C1.35 5 -0.3 5 -2 5 C-2.33 5.66 -2.66 6.32 -3 7 C-3.99 7 -4.98 7 -6 7 C-5.34 5.68 -4.68 4.36 -4 3 C-3.01 3 -2.02 3 -1 3 C-0.67 2.01 -0.34 1.02 0 0 Z " fill="#212121" transform="translate(155,80)"/>
<path d="M0 0 C1.98 0 3.96 0 6 0 C6 2.31 6 4.62 6 7 C4.68 7 3.36 7 2 7 C0 4 0 4 0 0 Z " fill="#1B1B1B" transform="translate(210,88)"/>
<path d="M0 0 C1.0725 0.165 2.145 0.33 3.25 0.5 C7.03028752 1.08810915 7.03028752 1.08810915 11 1 C10.67 1.99 10.34 2.98 10 4 C3.375 5.25 3.375 5.25 0 3 C0 2.01 0 1.02 0 0 Z " fill="#E4E4E4" transform="translate(171,94)"/>
<path d="M0 0 C0.66 0 1.32 0 2 0 C3.4606285 2.64738916 4 3.89448334 4 7 C1.69 7.33 -0.62 7.66 -3 8 C-1.125 2.25 -1.125 2.25 0 0 Z " fill="#171717" transform="translate(188,94)"/>
<path d="M0 0 C0.66 3.3 1.32 6.6 2 10 C0.68 10 -0.64 10 -2 10 C-3 9 -3 9 -3.09765625 7.15234375 C-3.06510417 5.1015625 -3.03255208 3.05078125 -3 1 C-1 0 -1 0 0 0 Z " fill="#F3F3F3" transform="translate(219,87)"/>
<path d="M0 0 C1.3303125 0.7115625 1.3303125 0.7115625 2.6875 1.4375 C5.57042756 2.79737149 7.87610623 3.54060386 11 4 C10.01 5.485 10.01 5.485 9 7 C6.0625 7.5 6.0625 7.5 3 7 C1.11400657 4.61107499 0 3.08148442 0 0 Z " fill="#E9E9E9" transform="translate(126,81)"/>
<path d="M0 0 C0.99 0.33 1.98 0.66 3 1 C2.34 1 1.68 1 1 1 C1.66 1.99 2.32 2.98 3 4 C3.125 7.1875 3.125 7.1875 3 10 C1.68 9.34 0.36 8.68 -1 8 C-1.04241723 5.66705225 -1.04092937 3.33297433 -1 1 C-0.67 0.67 -0.34 0.34 0 0 Z " fill="#141414" transform="translate(160,87)"/>
<path d="M0 0 C2.86697492 1.28519565 4.97607712 2.57129254 7 5 C7 5.66 7 6.32 7 7 C6.319375 6.71125 5.63875 6.4225 4.9375 6.125 C1.67106907 4.87402645 -1.62846123 3.92552045 -5 3 C-4.360625 2.690625 -3.72125 2.38125 -3.0625 2.0625 C-1.06389179 1.1654837 -1.06389179 1.1654837 0 0 Z " fill="#E0E0E0" transform="translate(139,94)"/>
<path d="M0 0 C0.33 0.66 0.66 1.32 1 2 C0.0625 4.125 0.0625 4.125 -1 6 C-0.01 6.33 0.98 6.66 2 7 C1.01 7.99 0.02 8.98 -1 10 C-1.99 9.67 -2.98 9.34 -4 9 C-3.67 8.34 -3.34 7.68 -3 7 C-3 6.01 -3 5.02 -3 4 C-1.5 1.8125 -1.5 1.8125 0 0 Z " fill="#080808" transform="translate(184,93)"/>
<path d="M0 0 C0.33 0 0.66 0 1 0 C1 2.97 1 5.94 1 9 C1.99 9 2.98 9 4 9 C4 9.99 4 10.98 4 12 C2.35 12 0.7 12 -1 12 C-1.33 11.34 -1.66 10.68 -2 10 C-1.34 10 -0.68 10 0 10 C0 6.7 0 3.4 0 0 Z " fill="#C7C7C7" transform="translate(201,87)"/>
<path d="M0 0 C0.66 0.33 1.32 0.66 2 1 C2 1.66 2 2.32 2 3 C2.66 3 3.32 3 4 3 C4.33 4.32 4.66 5.64 5 7 C4.01 7.33 3.02 7.66 2 8 C0.93224776 6.03533587 -0.06553465 4.03144641 -1 2 C-0.67 1.34 -0.34 0.68 0 0 Z " fill="#1E1E1E" transform="translate(192,89)"/>
<path d="M0 0 C3 0.1875 3 0.1875 5 1.1875 C5 1.8475 5 2.5075 5 3.1875 C-3 3.1875 -3 3.1875 -5 2.1875 C-3 0.1875 -3 0.1875 0 0 Z " fill="#E4E4E4" transform="translate(221,84.8125)"/>
<path d="M0 0 C0.66 0.33 1.32 0.66 2 1 C2 1.66 2 2.32 2 3 C2.99 3.33 3.98 3.66 5 4 C1.7 4 -1.6 4 -5 4 C-3 1 -3 1 0 0 Z " fill="#C4C4C4" transform="translate(224,95)"/>
<path d="M0 0 C2.97 0 5.94 0 9 0 C7.3125 1.5625 7.3125 1.5625 5 3 C2.25 2.6875 2.25 2.6875 0 2 C0 1.34 0 0.68 0 0 Z " fill="#060606" transform="translate(173,93)"/>
<path d="M0 0 C0 1.98 0 3.96 0 6 C-1.32 6.33 -2.64 6.66 -4 7 C-4 5 -4 5 -3 4 C-3 3.01 -3 2.02 -3 1 C-1 0 -1 0 0 0 Z " fill="#060606" transform="translate(225,89)"/>
<path d="M0 0 C2.475 0.99 2.475 0.99 5 2 C4.67 2.99 4.34 3.98 4 5 C4.66 5.33 5.32 5.66 6 6 C4.35 6.33 2.7 6.66 1 7 C1 6.34 1 5.68 1 5 C1.66 5 2.32 5 3 5 C3 4.34 3 3.68 3 3 C2.01 2.67 1.02 2.34 0 2 C0 1.34 0 0.68 0 0 Z " fill="#191919" transform="translate(214,96)"/>
</svg>
