<?xml version="1.0" encoding="UTF-8"?>
<svg version="1.1" xmlns="http://www.w3.org/2000/svg" width="344" height="180">
<path d="M0 0 C113.52 0 227.04 0 344 0 C344 59.4 344 118.8 344 180 C230.48 180 116.96 180 0 180 C0 120.6 0 61.2 0 0 Z " fill="#FCFCFC" transform="translate(0,0)"/>
<path d="M0 0 C1.30453125 -0.03738281 2.6090625 -0.07476562 3.953125 -0.11328125 C9.01407827 0.45425363 11.7352296 2.64510381 15.5625 5.8125 C18.83091181 9.94102019 18.21622925 16.34474697 17.75 21.3125 C15.72368421 25.82565789 15.72368421 25.82565789 12.75 27.3125 C10.4170134 27.35272391 8.08293334 27.35570247 5.75 27.3125 C5.75 26.6525 5.75 25.9925 5.75 25.3125 C4.76 25.9725 3.77 26.6325 2.75 27.3125 C-4.22233202 27.86585968 -4.22233202 27.86585968 -7.6875 26 C-10.5629971 22.89446313 -10.58069524 19.41350305 -10.54296875 15.31640625 C-10.08259178 12.16742778 -8.48099654 10.477879 -6.25 8.3125 C-3.30613377 6.84056688 -0.87609964 7.46313827 2.375 7.75 C5.530625 8.0284375 5.530625 8.0284375 8.75 8.3125 C8.75 12.9325 8.75 17.5525 8.75 22.3125 C9.74 22.3125 10.73 22.3125 11.75 22.3125 C12.17166526 15.02913286 12.17166526 15.02913286 9.75 8.3125 C5.33148703 5.54239474 0.80091152 5.78039425 -4.25 6.3125 C-8.18370951 7.95154563 -9.64636279 9.44285369 -11.25 13.3125 C-11.9599797 17.92736808 -11.87455021 21.31321966 -9.375 25.3125 C-5.78399715 28.69226738 -3.47363651 28.42253565 1.375 28.375 C3.15777344 28.36146484 3.15777344 28.36146484 4.9765625 28.34765625 C6.34941406 28.33025391 6.34941406 28.33025391 7.75 28.3125 C8.41 29.9625 9.07 31.6125 9.75 33.3125 C3.52160024 35.80385991 -1.62688008 36.15723353 -7.9375 34.125 C-12.22180336 31.78075854 -15.09287387 29.2961448 -17.5625 25.0625 C-19.25004653 18.31231386 -18.76980584 12.41349678 -15.25 6.3125 C-10.39480081 1.31488163 -6.88655231 0.12827892 0 0 Z " fill="#0B0B0B" transform="translate(104.25,76.6875)"/>
<path d="M0 0 C2.64 0 5.28 0 8 0 C8 8.91 8 17.82 8 27 C5.36 27 2.72 27 0 27 C-0.33 26.67 -0.66 26.34 -1 26 C-2.0725 26.2475 -3.145 26.495 -4.25 26.75 C-8 27 -8 27 -10.9375 25.25 C-13.91234662 20.5623629 -13.89206047 16.41072189 -13 11 C-10.91892538 7.63826408 -9.67733085 7.17610602 -5.875 6.1875 C-3 6 -3 6 -1 7 C-0.67 4.69 -0.34 2.38 0 0 Z " fill="#1A1A1A" transform="translate(205,77)"/>
<path d="M0 0 C2.31 0 4.62 0 7 0 C7.33 2.64 7.66 5.28 8 8 C8.99 7.34 9.98 6.68 11 6 C14.15390742 5.51478347 15.49713733 5.65376669 18.14453125 7.4765625 C20.85358905 11.16088111 20.44164479 14.30531506 20.25 18.75 C20.23195312 19.54277344 20.21390625 20.33554688 20.1953125 21.15234375 C20.14833082 23.10208348 20.07659044 25.05119878 20 27 C17.69 27 15.38 27 13 27 C12.67 22.38 12.34 17.76 12 13 C10.68 13 9.36 13 8 13 C7.67 17.62 7.34 22.24 7 27 C4.69 27 2.38 27 0 27 C0 18.09 0 9.18 0 0 Z " fill="#0B0B0B" transform="translate(147,77)"/>
<path d="M0 0 C2.31 0 4.62 0 7 0 C7.33 0.66 7.66 1.32 8 2 C8.99 1.34 9.98 0.68 11 0 C17.13383672 0.2190656 17.13383672 0.2190656 19.70703125 2.5390625 C21.55283201 6.05221803 21.32055915 9.38787287 21.1875 13.25 C21.16719727 14.36761719 21.16719727 14.36761719 21.14648438 15.5078125 C21.11127204 17.33885416 21.05746851 19.16952169 21 21 C18.36 21 15.72 21 13 21 C12.67 16.38 12.34 11.76 12 7 C11.01 7 10.02 7 9 7 C8.67 11.62 8.34 16.24 8 21 C5.36 21 2.72 21 0 21 C0 14.07 0 7.14 0 0 Z " fill="#1F1F1F" transform="translate(238,83)"/>
<path d="M0 0 C3.155625 0.2784375 3.155625 0.2784375 6.375 0.5625 C6.375 5.1825 6.375 9.8025 6.375 14.5625 C7.035 14.8925 7.695 15.2225 8.375 15.5625 C6.395 15.5625 4.415 15.5625 2.375 15.5625 C1.715 16.8825 1.055 18.2025 0.375 19.5625 C-6.94526144 19.92851307 -6.94526144 19.92851307 -10.0625 18.25 C-12.9379971 15.14446313 -12.95569524 11.66350305 -12.91796875 7.56640625 C-12.45759178 4.41742778 -10.85599654 2.727879 -8.625 0.5625 C-5.68113377 -0.90943312 -3.25109964 -0.28686173 0 0 Z " fill="#0C0C0C" transform="translate(106.625,84.4375)"/>
<path d="M0 0 C2.69478663 1.98259302 4.69201212 3.51673038 5.39672852 6.91064453 C5.49170118 9.06589076 5.43758926 11.15904032 5.3125 13.3125 C5.28994141 14.05306641 5.26738281 14.79363281 5.24414062 15.55664062 C5.1855815 17.37197357 5.09590886 19.18625681 5 21 C1.66666667 21 -1.66666667 21 -5 21 C-5.99 21.061875 -6.98 21.12375 -8 21.1875 C-11 21 -11 21 -12.875 19.875 C-14.52854531 17.11909116 -14.39365568 15.14924548 -14 12 C-12.36842328 9.81938476 -11.41442366 9.09376425 -8.73828125 8.48828125 C-7.93777344 8.43027344 -7.13726562 8.37226562 -6.3125 8.3125 C-5.10013672 8.21388672 -5.10013672 8.21388672 -3.86328125 8.11328125 C-3.24839844 8.07589844 -2.63351563 8.03851563 -2 8 C-2.33 7.34 -2.66 6.68 -3 6 C-6.3 6.33 -9.6 6.66 -13 7 C-12 3 -12 3 -10.4375 1.25 C-7.04548594 -0.48949439 -3.65876519 -1.03562814 0 0 Z " fill="#111111" transform="translate(184,83)"/>
<path d="M0 0 C3.375 1.25 3.375 1.25 6 3 C6.875 5.1875 6.875 5.1875 7 7 C-0.42857143 7.14285714 -0.42857143 7.14285714 -4 6 C-4 6.33 -4 6.66 -4 7 C-2.741875 7.28875 -1.48375 7.5775 -0.1875 7.875 C2.8539399 8.57303539 4.30669878 9.20446585 7 11 C7.5 13.875 7.5 13.875 7 17 C4.85258145 19.63231951 3.2096895 20.78562464 -0.16015625 21.3828125 C-4.24944326 21.58761819 -6.48276299 21.30611986 -10.0625 19.1875 C-12 17 -12 17 -12 14 C-4.57142857 13.85714286 -4.57142857 13.85714286 -1 15 C-1 14.67 -1 14.34 -1 14 C-2.258125 13.731875 -3.51625 13.46375 -4.8125 13.1875 C-7.23856525 12.56917541 -8.89556895 12.06853288 -11 10.6875 C-12.46910445 8.20838625 -12.55202464 6.8291263 -12 4 C-8.31802145 -0.12827898 -5.39460971 -0.66249593 0 0 Z " fill="#131313" transform="translate(137,83)"/>
<path d="M0 0 C2.5 1.8125 2.5 1.8125 4 4 C4 5.32 4 6.64 4 8 C2.02 8 0.04 8 -2 8 C-2.33 7.34 -2.66 6.68 -3 6 C-4.32 6 -5.64 6 -7 6 C-7 8.31 -7 10.62 -7 13 C-5.68 13.33 -4.36 13.66 -3 14 C-2.67 13.01 -2.34 12.02 -2 11 C-0.02 11 1.96 11 4 11 C3.6375 16.4375 3.6375 16.4375 0.875 18.875 C-3.68973837 20.66120197 -7.28294165 20.72498019 -11.8125 18.8125 C-15.23642154 15.97553644 -15.79733518 13.36074951 -16.4375 9.0625 C-15.81303462 4.69124232 -14.11034648 3.11034648 -11 0 C-7.15739926 -1.28086691 -3.86297532 -1.0104362 0 0 Z " fill="#121212" transform="translate(231,84)"/>
<path d="M0 0 C0.33 0 0.66 0 1 0 C1.33 2.31 1.66 4.62 2 7 C2.99 7 3.98 7 5 7 C5.33 5.68 5.66 4.36 6 3 C6.35807292 4.953125 6.71614583 6.90625 7.07421875 8.859375 C8.43181516 11.99845868 10.10382243 13.21773688 13 15 C16.34994801 15.48079519 16.34994801 15.48079519 19.8125 15.25 C20.97394531 15.21390625 22.13539062 15.1778125 23.33203125 15.140625 C24.65267578 15.07101563 24.65267578 15.07101563 26 15 C26.66 16.65 27.32 18.3 28 20 C21.77160024 22.49135991 16.62311992 22.84473353 10.3125 20.8125 C6.02819664 18.46825854 3.15712613 15.9836448 0.6875 11.75 C-0.29402215 7.82391139 -0.15783722 4.02484922 0 0 Z " fill="#131313" transform="translate(86,90)"/>
<path d="M0 0 C2.5086593 2.27347249 3.27632573 3.48359838 4 6.8125 C3.85719372 9.84713339 3.48332276 12.81459258 3 15.8125 C2.01 15.8125 1.02 15.8125 0 15.8125 C0 11.1925 0 6.5725 0 1.8125 C-8.56203454 1.05502908 -8.56203454 1.05502908 -16.3125 3.8125 C-18.63130237 7.93481532 -18.52225812 10.11217693 -18 14.8125 C-16.99124788 17.62259519 -16.66604583 18.47947708 -14 19.8125 C-8.39296787 20.02627721 -8.39296787 20.02627721 -3 18.8125 C-3 19.4725 -3 20.1325 -3 20.8125 C-1.35 20.8125 0.3 20.8125 2 20.8125 C-2.98825196 23.78397066 -8.37210413 23.57140185 -14 22.8125 C-17.22910257 21.18280283 -19.36074583 19.09100835 -21 15.8125 C-21.57717357 11.08156912 -21.43416625 7.66532657 -19.25 3.375 C-14.20723251 -2.36815187 -6.92101989 -2.73957037 0 0 Z " fill="#F1F1F1" transform="translate(113,83.1875)"/>
<path d="M0 0 C3.12096208 -0.34677356 4.55612852 -0.31936108 7.14453125 1.54296875 C9.715633 4.94764875 9.49941199 7.34010214 9.4375 11.5625 C9.44458984 12.23474609 9.45167969 12.90699219 9.45898438 13.59960938 C9.41996817 16.62186465 9.35977019 18.53717544 7.47265625 20.96484375 C6.98667969 21.30644531 6.50070313 21.64804688 6 22 C4.68 21.34 3.36 20.68 2 20 C2.474375 19.5875 2.94875 19.175 3.4375 18.75 C5.16266518 16.817815 5.56584875 15.51807725 6 13 C3.02934491 13.34227572 3.02934491 13.34227572 0 14 C-0.33 14.66 -0.66 15.32 -1 16 C-2.65 15.67 -4.3 15.34 -6 15 C-6 12.69 -6 10.38 -6 8 C-4.35 7.67 -2.7 7.34 -1 7 C-0.67 7.99 -0.34 8.98 0 10 C1.98 10 3.96 10 6 10 C5.67 8.02 5.34 6.04 5 4 C3.02 3.34 1.04 2.68 -1 2 C-0.67 1.34 -0.34 0.68 0 0 Z " fill="#EBEBEB" transform="translate(229,82)"/>
<path d="M0 0 C2.5 1.8125 2.5 1.8125 4 4 C4 5.32 4 6.64 4 8 C2.02 8 0.04 8 -2 8 C-2.33 7.34 -2.66 6.68 -3 6 C-3.928125 6 -4.85625 6 -5.8125 6 C-7.875 6 -9.9375 6 -12 6 C-12.33 6.66 -12.66 7.32 -13 8 C-13.66 8 -14.32 8 -15 8 C-15.33 9.32 -15.66 10.64 -16 12 C-16.34559158 9.09703073 -16.51874316 6.87462509 -14.9921875 4.30078125 C-10.5901836 -1.14241518 -6.61513151 -1.73031609 0 0 Z " fill="#0A0A0A" transform="translate(231,84)"/>
<path d="M0 0 C2.37875755 2.37875755 2.28403059 3.12466032 2.5 6.375 C2.7253944 9.74464622 3.33026796 12.05103776 5 15 C2 17 2 17 -1 18 C-3 16.6875 -3 16.6875 -5 14 C-5.63584018 10.24122795 -5.70703202 6.75136 -5 3 C-2.5 0.8125 -2.5 0.8125 0 0 Z " fill="#0A0A0A" transform="translate(197,85)"/>
<path d="M0 0 C0.33 0.66 0.66 1.32 1 2 C1.99 2.33 2.98 2.66 4 3 C3.67 4.32 3.34 5.64 3 7 C1.68 7 0.36 7 -1 7 C-0.01 7.33 0.98 7.66 2 8 C1.67 9.32 1.34 10.64 1 12 C-4.4 12.36 -4.4 12.36 -6.875 10.875 C-8.52854531 8.11909116 -8.39365568 6.14924548 -8 3 C-5.87141064 -0.36093057 -3.79035926 -0.30732643 0 0 Z " fill="#141414" transform="translate(178,92)"/>
<path d="M0 0 C1.98 0.99 3.96 1.98 6 3 C5.360625 3.268125 4.72125 3.53625 4.0625 3.8125 C1.66868314 4.88667752 1.66868314 4.88667752 1 8 C0.90601771 9.81054127 0.87008013 11.62452781 0.875 13.4375 C0.87242187 14.38496094 0.86984375 15.33242187 0.8671875 16.30859375 C0.98526525 18.70140459 1.31887365 20.71336153 2 23 C0.68 22.34 -0.64 21.68 -2 21 C-2.33 21.66 -2.66 22.32 -3 23 C-3.03738281 21.96359375 -3.07476562 20.9271875 -3.11328125 19.859375 C-3.17895788 18.48954816 -3.24540464 17.11975809 -3.3125 15.75 C-3.33505859 15.06808594 -3.35761719 14.38617188 -3.38085938 13.68359375 C-3.60166604 9.54848704 -4.09593 7.02085566 -7 4 C-6.67 3.34 -6.34 2.68 -6 2 C-3.03 2.495 -3.03 2.495 0 3 C0 2.01 0 1.02 0 0 Z " fill="#EBEBEB" transform="translate(192,80)"/>
<path d="M0 0 C1.65 0.33 3.3 0.66 5 1 C5 5.62 5 10.24 5 15 C2.03 14.505 2.03 14.505 -1 14 C-1.02685938 11.85423363 -1.04633088 9.70837355 -1.0625 7.5625 C-1.07410156 6.36753906 -1.08570313 5.17257813 -1.09765625 3.94140625 C-1 1 -1 1 0 0 Z " fill="#E8E8E8" transform="translate(155,89)"/>
<path d="M0 0 C0.33 0.99 0.66 1.98 1 3 C4.3 2.34 7.6 1.68 11 1 C11.33 1.99 11.66 2.98 12 4 C11.06027344 4.18175781 11.06027344 4.18175781 10.1015625 4.3671875 C9.28429687 4.53476563 8.46703125 4.70234375 7.625 4.875 C6.40683594 5.11863281 6.40683594 5.11863281 5.1640625 5.3671875 C2.81326077 5.86658932 2.81326077 5.86658932 1 8 C0.83322718 11.58343976 0.83322718 11.58343976 1 15 C-0.32 15.33 -1.64 15.66 -3 16 C-3 11.05 -3 6.1 -3 1 C-2.01 0.67 -1.02 0.34 0 0 Z " fill="#E2E2E2" transform="translate(170,87)"/>
<path d="M0 0 C1.32 0.66 2.64 1.32 4 2 C4 2.66 4 3.32 4 4 C7.3 4.66 10.6 5.32 14 6 C14 6.99 14 7.98 14 9 C10.37 8.34 6.74 7.68 3 7 C3.99 8.98 4.98 10.96 6 13 C4.68 13 3.36 13 2 13 C2 12.34 2 11.68 2 11 C1.01 10.67 0.02 10.34 -1 10 C-0.67 6.7 -0.34 3.4 0 0 Z " fill="#ECECEC" transform="translate(122,90)"/>
<path d="M0 0 C3 0.125 3 0.125 4 1.125 C4.1875 4.0625 4.1875 4.0625 4 7.125 C2 9.125 2 9.125 -0.5625 9.3125 C-3 9.125 -3 9.125 -4 8.125 C-4.125 4.625 -4.125 4.625 -4 1.125 C-3 0.125 -3 0.125 0 0 Z " fill="#EAEAEA" transform="translate(104,89.875)"/>
<path d="M0 0 C3.3 0 6.6 0 10 0 C10 1.98 10 3.96 10 6 C9.01 6 8.02 6 7 6 C6.34 6.66 5.68 7.32 5 8 C4.34 7.01 3.68 6.02 3 5 C0.43717258 4.27034634 0.43717258 4.27034634 -2 4 C-1.34 2.68 -0.68 1.36 0 0 Z " fill="#080808" transform="translate(103,85)"/>
<path d="M0 0 C0.99 0.33 1.98 0.66 3 1 C3.66 0.67 4.32 0.34 5 0 C4.25 7.625 4.25 7.625 2 11 C2.33 11.66 2.66 12.32 3 13 C1.0625 12.625 1.0625 12.625 -1 12 C-2.50934217 8.98131566 -2.17510672 6.32702771 -2 3 C-1.34 2.01 -0.68 1.02 0 0 Z " fill="#060606" transform="translate(218,89)"/>
<path d="M0 0 C-1.98 0.99 -1.98 0.99 -4 2 C-3.01 2.99 -2.02 3.98 -1 5 C-6.8 8 -6.8 8 -10 8 C-10.99 8.495 -10.99 8.495 -12 9 C-12.65213292 11.02463255 -12.65213292 11.02463255 -13 13 C-13.34559158 10.09703073 -13.51874316 7.87462509 -11.9921875 5.30078125 C-8.30229701 0.73813223 -5.69678259 -0.1539671 0 0 Z " fill="#212121" transform="translate(228,83)"/>
<path d="M0 0 C2.13671875 1.125 2.13671875 1.125 4 3 C4.64453125 5.375 4.64453125 5.375 4.8125 8 C4.88082031 8.86625 4.94914062 9.7325 5.01953125 10.625 C5 13 5 13 4 16 C3.01 16 2.02 16 1 16 C1 11.38 1 6.76 1 2 C-0.32 1.67 -1.64 1.34 -3 1 C-2.01 0.67 -1.02 0.34 0 0 Z " fill="#BEBEBE" transform="translate(112,83)"/>
<path d="M0 0 C3 1 3 1 4.0625 3 C4.371875 3.66 4.68125 4.32 5 5 C8.14341993 6.57170996 11.55771451 6.23175783 15 6 C15.99 5.67 16.98 5.34 18 5 C18 5.66 18 6.32 18 7 C19.65 7 21.3 7 23 7 C18.00493616 9.97552846 12.63508909 9.74482486 7 9 C3.56825123 7.38392319 1.49268924 5.30210728 0.125 1.6875 C0.08375 1.130625 0.0425 0.57375 0 0 Z " fill="#D3D3D3" transform="translate(92,97)"/>
<path d="M0 0 C-1.65 1.65 -3.3 3.3 -5 5 C-3.35 5 -1.7 5 0 5 C0 5.33 0 5.66 0 6 C-1.65 6.33 -3.3 6.66 -5 7 C-5.33 8.65 -5.66 10.3 -6 12 C-6.268125 11.38125 -6.53625 10.7625 -6.8125 10.125 C-7.95556848 7.7004767 -7.95556848 7.7004767 -11 6 C-8.60159776 0.46522561 -5.82500047 -0.25888891 0 0 Z " fill="#1A1A1A" transform="translate(106,84)"/>
<path d="M0 0 C1.32 0.33 2.64 0.66 4 1 C3.34 4.3 2.68 7.6 2 11 C0.68 11.33 -0.64 11.66 -2 12 C-2 8.7 -2 5.4 -2 2 C-1.34 2 -0.68 2 0 2 C0 1.34 0 0.68 0 0 Z " fill="#040404" transform="translate(89,86)"/>
<path d="M0 0 C1.65 0.33 3.3 0.66 5 1 C5 3.31 5 5.62 5 8 C3.125 8.625 3.125 8.625 1 9 C0.34 8.34 -0.32 7.68 -1 7 C-0.625 3.375 -0.625 3.375 0 0 Z " fill="#E9E9E9" transform="translate(200,89)"/>
<path d="M0 0 C6.52307692 -0.36923077 6.52307692 -0.36923077 8.9375 1.5 C9.288125 1.995 9.63875 2.49 10 3 C9.34 3.66 8.68 4.32 8 5 C8.33 5.66 8.66 6.32 9 7 C3.53571429 6.39285714 3.53571429 6.39285714 1.125 4.625 C0 3 0 3 0 0 Z " fill="#191919" transform="translate(125,97)"/>
<path d="M0 0 C0.66 0.33 1.32 0.66 2 1 C1.98839844 1.74765625 1.97679687 2.4953125 1.96484375 3.265625 C1.95582031 4.25046875 1.94679687 5.2353125 1.9375 6.25 C1.92589844 7.22453125 1.91429687 8.1990625 1.90234375 9.203125 C1.98804423 11.65758678 2.29293934 13.66168914 3 16 C1.68 15.34 0.36 14.68 -1 14 C-1.33 14.66 -1.66 15.32 -2 16 C-1.85975781 13.52039864 -1.7130815 11.04147598 -1.5625 8.5625 C-1.52318359 7.85544922 -1.48386719 7.14839844 -1.44335938 6.41992188 C-1.11328125 1.11328125 -1.11328125 1.11328125 0 0 Z " fill="#F1F1F1" transform="translate(191,87)"/>
<path d="M0 0 C2.0625 0.4375 2.0625 0.4375 4 1 C4 2.65 4 4.3 4 6 C2.35 6.66 0.7 7.32 -1 8 C-1.04241723 5.66705225 -1.04092937 3.33297433 -1 1 C-0.67 0.67 -0.34 0.34 0 0 Z " fill="#F1F1F1" transform="translate(247,89)"/>
<path d="M0 0 C0.33 0.99 0.66 1.98 1 3 C1.99 3.33 2.98 3.66 4 4 C2.35 4.66 0.7 5.32 -1 6 C-1.33 9.3 -1.66 12.6 -2 16 C-2.33 16 -2.66 16 -3 16 C-3 11.05 -3 6.1 -3 1 C-2.01 0.67 -1.02 0.34 0 0 Z " fill="#D7D7D7" transform="translate(170,87)"/>
<path d="M0 0 C1.5625 1.1875 1.5625 1.1875 3 3 C2.6875 5.6875 2.6875 5.6875 2 8 C0.125 8.625 0.125 8.625 -2 9 C-2.66 8.34 -3.32 7.68 -4 7 C-3.525625 6.5875 -3.05125 6.175 -2.5625 5.75 C-0.83733482 3.817815 -0.43415125 2.51807725 0 0 Z " fill="#E9E9E9" transform="translate(235,95)"/>
<path d="M0 0 C2.125 0.375 2.125 0.375 4 1 C3.34 2.65 2.68 4.3 2 6 C1.01 6 0.02 6 -1 6 C-1.625 4.125 -1.625 4.125 -2 2 C-1.34 1.34 -0.68 0.68 0 0 Z " fill="#080808" transform="translate(172,93)"/>
<path d="M0 0 C1.98 0 3.96 0 6 0 C6 1.98 6 3.96 6 6 C3 6 3 6 1.3125 4.6875 C0 3 0 3 0 0 Z " fill="#F0F0F0" transform="translate(254,81)"/>
<path d="M0 0 C3.63 0.66 7.26 1.32 11 2 C10.01 2.99 9.02 3.98 8 5 C5.03 4.01 2.06 3.02 -1 2 C-0.67 1.34 -0.34 0.68 0 0 Z " fill="#E5E5E5" transform="translate(133,88)"/>
<path d="M0 0 C1.32 0.33 2.64 0.66 4 1 C3.34 1.66 2.68 2.32 2 3 C2.33 3.66 2.66 4.32 3 5 C0.69 5.33 -1.62 5.66 -4 6 C-2.25 2.125 -2.25 2.125 0 1 C0 0.67 0 0.34 0 0 Z " fill="#1C1C1C" transform="translate(201,98)"/>
<path d="M0 0 C0.94875 0.350625 1.8975 0.70125 2.875 1.0625 C3.205 0.4025 3.535 -0.2575 3.875 -0.9375 C3.875 1.0425 3.875 3.0225 3.875 5.0625 C3.215 4.7325 2.555 4.4025 1.875 4.0625 C1.875 3.4025 1.875 2.7425 1.875 2.0625 C-0.435 2.0625 -2.745 2.0625 -5.125 2.0625 C-5.125 1.4025 -5.125 0.7425 -5.125 0.0625 C-3.125 -0.9375 -3.125 -0.9375 0 0 Z " fill="#FBFBFB" transform="translate(234.125,92.9375)"/>
<path d="M0 0 C0.66 0 1.32 0 2 0 C5 3.46153846 5 3.46153846 5 6 C2.03 5.505 2.03 5.505 -1 5 C-0.67 3.35 -0.34 1.7 0 0 Z " fill="#040404" transform="translate(133,91)"/>
<path d="M0 0 C4 4.75 4 4.75 4 7 C2.68 7.99 1.36 8.98 0 10 C0 6.7 0 3.4 0 0 Z " fill="#EDEDED" transform="translate(154,77)"/>
<path d="M0 0 C1.32 1.65 2.64 3.3 4 5 C2.68 5.33 1.36 5.66 0 6 C0 5.34 0 4.68 0 4 C-0.99 3.67 -1.98 3.34 -3 3 C-2.67 2.34 -2.34 1.68 -2 1 C-1.34 1.33 -0.68 1.66 0 2 C0 1.34 0 0.68 0 0 Z " fill="#DEDEDE" transform="translate(124,97)"/>
<path d="M0 0 C0.99 0 1.98 0 3 0 C3 1.65 3 3.3 3 5 C1.35 5.66 -0.3 6.32 -2 7 C-1.34 4.69 -0.68 2.38 0 0 Z " fill="#E8E8E8" transform="translate(144,95)"/>
<path d="M0 0 C1.32 0 2.64 0 4 0 C3.67 1.32 3.34 2.64 3 4 C1.68 4 0.36 4 -1 4 C-0.67 2.68 -0.34 1.36 0 0 Z " fill="#DDDDDD" transform="translate(178,95)"/>
<path d="M0 0 C1.98 0.99 1.98 0.99 4 2 C3.67 3.32 3.34 4.64 3 6 C2.01 6 1.02 6 0 6 C0 4.02 0 2.04 0 0 Z " fill="#DDDDDD" transform="translate(122,90)"/>
<path d="M0 0 C0 0.99 0 1.98 0 3 C-2.5 4.6875 -2.5 4.6875 -5 6 C-5.33 5.01 -5.66 4.02 -6 3 C-2.25 0 -2.25 0 0 0 Z " fill="#EFEFEF" transform="translate(95,76)"/>
<path d="M0 0 C1.65 0.33 3.3 0.66 5 1 C4.67 2.32 4.34 3.64 4 5 C1.525 4.01 1.525 4.01 -1 3 C-0.67 2.01 -0.34 1.02 0 0 Z " fill="#EAEAEA" transform="translate(186,82)"/>
</svg>
